<?xml version="1.0" encoding="utf-8"?>
<!-- Generator: Adobe Illustrator 21.1.0, SVG Export Plug-In . SVG Version: 6.00 Build 0)  -->
<svg version="1.1" id="Layer_1" xmlns="http://www.w3.org/2000/svg" xmlns:xlink="http://www.w3.org/1999/xlink" x="0px" y="0px"
	 viewBox="0 0 1900 820" enable-background="new 0 0 1900 820" xml:space="preserve">
<path opacity="0.33" fill="#4272B7" d="M131.268,214.805c62.891,14.312,90.176-34.948,90.176-34.948
	C158.552,165.545,131.268,214.805,131.268,214.805"/>
<path opacity="0.33" fill="#4272B7" d="M502.523,675.782c11.638,63.441,67.665,69.098,67.665,69.098
	C558.549,681.439,502.523,675.782,502.523,675.782"/>
<path opacity="0.33" fill="#4272B7" d="M522.159,64.418c50.376,40.28,96.394,7.825,96.394,7.825
	C568.176,31.964,522.159,64.418,522.159,64.418"/>
<path opacity="0.33" fill="#4272B7" d="M188.955,554.646c-48.757,42.224-25.198,93.371-25.198,93.371
	C212.514,605.791,188.955,554.646,188.955,554.646"/>
<path opacity="0.66" fill="#4272B7" d="M987.469,84.16c33.215,55.289,87.65,40.872,87.65,40.872
	C1041.903,69.743,987.469,84.16,987.469,84.16"/>
<path opacity="0.66" fill="#4272B7" d="M723.243,246.349c-64.498,0.328-79.897,54.493-79.897,54.493
	C707.844,300.514,723.243,246.349,723.243,246.349"/>
<path opacity="0.66" fill="#4272B7" d="M876.787,475.395c-23.592,60.03,21.014,94.401,21.014,94.401
	C921.392,509.766,876.787,475.395,876.787,475.395"/>
<path opacity="0.66" fill="#4272B7" d="M1138.493,307.73c-57.987,28.241-48.397,83.73-48.397,83.73
	C1148.083,363.219,1138.493,307.73,1138.493,307.73"/>
<path opacity="0.66" fill="#4272B7" d="M1316.391,712.99c-61.867-18.237-92.194,29.211-92.194,29.211
	C1286.064,760.437,1316.391,712.99,1316.391,712.99"/>
<path fill="#4272B7" d="M1375.111,141.324c64.476,1.753,81.613-51.887,81.613-51.887
	C1392.25,87.683,1375.111,141.324,1375.111,141.324"/>
<path fill="#4272B7" d="M1672.421,275.249c-18.382,61.825,28.994,92.262,28.994,92.262
	C1719.797,305.687,1672.421,275.249,1672.421,275.249"/>
<path fill="#4272B7" d="M1347.568,384.634c-44.077,47.09-15.301,95.493-15.301,95.493
	C1376.344,433.037,1347.568,384.634,1347.568,384.634"/>
<path fill="#4272B7" d="M1720.738,535.119c-61.876,18.21-61.641,74.521-61.641,74.521
	C1720.972,591.43,1720.738,535.119,1720.738,535.119"/>
<path fill="#4272B7" d="M1772.879,109.776c60.393-22.646,56.079-78.792,56.079-78.792
	C1768.565,53.63,1772.879,109.776,1772.879,109.776"/>
<g>
</g>
<g>
</g>
<g>
</g>
<g>
</g>
<g>
</g>
<g>
</g>
<g>
</g>
<g>
</g>
<g>
</g>
<g>
</g>
<g>
</g>
<g>
</g>
<g>
</g>
<g>
</g>
<g>
</g>
</svg>
