<?xml version="1.0" standalone="no"?>
<!DOCTYPE svg PUBLIC "-//W3C//DTD SVG 20010904//EN"
 "http://www.w3.org/TR/2001/REC-SVG-20010904/DTD/svg10.dtd">
<svg version="1.0" xmlns="http://www.w3.org/2000/svg"
 width="700.000000pt" height="700.000000pt" viewBox="0 0 700.000000 700.000000"
 preserveAspectRatio="xMidYMid meet">
<metadata>
Created by potrace 1.11, written by Peter Selinger 2001-2013
</metadata>
<g transform="translate(0.000000,700.000000) scale(0.100000,-0.100000)"
fill="#000000" stroke="none">
<path d="M297 6270 c-104 -18 -208 -96 -255 -191 -12 -26 -27 -82 -32 -125 -7
-53 -10 -872 -8 -2509 3 -2001 6 -2437 17 -2470 22 -64 77 -142 128 -179 99
-73 70 -70 747 -74 663 -3 694 -1 829 54 167 67 342 225 485 437 l67 99 3
-291 c1 -188 6 -291 12 -291 7 0 10 107 10 310 -1 307 -1 311 22 353 l23 42
363 3 362 2 0 -355 c0 -230 4 -355 10 -355 6 0 10 125 10 355 l0 355 385 0
385 0 0 -355 c0 -230 4 -355 10 -355 6 0 10 125 10 355 l0 355 390 0 390 0 0
-355 c0 -230 4 -355 10 -355 6 0 10 125 10 355 l0 355 385 0 385 0 0 -355 c0
-230 4 -355 10 -355 6 0 10 125 10 355 l0 355 390 0 390 0 0 -355 c0 -230 4
-355 10 -355 6 0 10 125 10 355 l0 355 368 2 367 2 -362 6 c-199 3 -364 8
-367 11 -2 2 -8 183 -12 401 l-7 398 374 3 374 2 -372 3 -373 2 0 125 0 125
205 0 205 0 0 150 0 150 -205 0 -205 0 0 130 0 130 373 3 372 2 -372 3 -373 2
0 405 0 405 373 3 372 2 -372 3 -373 2 0 405 0 405 373 3 372 2 -372 3 -373 2
0 370 0 370 371 0 370 0 -3 283 -3 282 -30 53 c-38 70 -111 135 -183 164 l-57
23 -3190 1 c-1754 1 -3211 -2 -3238 -6z m1948 -1467 c303 -713 553 -1305 558
-1317 4 -12 -140 129 -320 312 l-328 333 -619 2 -619 2 553 153 c305 84 556
154 558 157 5 5 -495 1203 -507 1217 -3 4 -150 -338 -326 -760 l-320 -767
-105 -110 c-256 -268 -553 -569 -548 -555 14 35 1109 2614 1114 2622 3 4 85 8
182 8 l177 0 550 -1297z m1615 297 l0 -370 -200 0 c-110 0 -200 1 -200 3 0 29
182 487 254 640 l46 97 50 0 50 0 0 -370z m800 0 l0 -370 -387 2 -388 3 -3
368 -2 367 390 0 390 0 0 -370z m798 3 l-3 -368 -387 -3 -388 -2 0 370 0 370
390 0 390 0 -2 -367z m792 -3 l0 -370 -390 0 -390 0 0 370 0 370 390 0 390 0
0 -370z m-792 -610 c2 -124 0 -303 -3 -397 l-7 -173 -384 0 -384 0 0 395 0
395 273 3 c149 1 324 2 387 2 l115 0 3 -225z m792 -175 l0 -405 -359 0 c-197
0 -373 3 -390 6 l-31 7 0 398 0 399 390 0 390 0 0 -405z m-2390 315 l0 -80
-230 0 c-126 0 -230 1 -230 3 0 7 32 106 41 130 l11 27 204 0 204 0 0 -80z
m800 -315 l0 -395 -390 0 -390 0 0 165 0 165 175 0 175 0 0 150 0 150 -175 0
-175 0 0 80 0 80 390 0 390 0 0 -395z m-800 -230 l0 -165 -329 0 -328 0 37
123 c21 67 43 141 49 165 l12 42 279 0 280 0 0 -165z m0 -590 l0 -405 -385 0
-384 0 -3 213 -3 212 53 185 c30 101 56 188 58 192 3 5 153 8 335 8 l329 0 0
-405z m800 0 l0 -405 -390 0 -390 0 0 398 c0 219 3 402 7 405 3 4 179 7 390 7
l383 0 0 -405z m790 0 l0 -405 -385 0 -385 0 0 405 0 405 385 0 385 0 0 -405z
m800 0 l0 -405 -390 2 -390 2 0 403 0 403 390 0 390 0 0 -405z m-3180 -225 l0
-180 -56 0 c-43 0 -55 3 -51 14 3 7 27 88 53 180 27 91 49 166 51 166 2 0 3
-81 3 -180z m3180 -320 l0 -130 -390 0 -390 0 0 124 0 125 48 4 c26 2 201 4
390 5 l342 2 0 -130z m-3180 -275 l0 -395 -180 0 c-99 0 -180 3 -180 6 0 3 35
115 78 248 43 132 98 307 123 389 l44 147 57 0 58 0 0 -395z m790 0 l0 -395
-385 0 -385 0 0 395 0 395 385 0 385 0 0 -395z m800 0 l0 -395 -390 0 -390 0
0 395 0 395 390 0 390 0 0 -395z m790 270 l0 -125 -190 0 -190 0 0 -155 0
-155 190 0 190 0 0 -115 0 -115 -385 0 -385 0 0 395 0 395 385 0 385 0 0 -125z
m800 -552 l0 -126 -112 6 c-62 4 -238 7 -390 7 l-278 0 0 115 0 115 273 3
c149 1 325 3 390 5 l117 2 0 -127z m-3180 -268 l0 -135 -235 0 c-129 0 -235 3
-235 8 0 4 19 54 41 112 23 58 45 115 50 128 8 22 11 22 194 22 l185 0 0 -135z
m790 -265 l0 -400 -385 0 -385 0 0 400 0 400 385 0 385 0 0 -400z m800 0 l0
-400 -390 0 -390 0 0 400 0 400 390 0 390 0 0 -400z m790 0 l0 -400 -385 0
-385 0 0 400 0 400 385 0 385 0 0 -400z m800 0 l0 -400 -390 0 -390 0 0 400 0
400 390 0 390 0 0 -400z m-3180 -285 l0 -115 -355 0 -355 0 46 91 c25 50 49
102 54 115 l10 24 300 0 300 0 0 -115z"/>
</g>
</svg>
