<svg id="Layer_1" data-name="Layer 1" xmlns="http://www.w3.org/2000/svg" viewBox="0 0 483.06 51.48"><defs><style>.cls-1{fill:#4285f4;}.cls-2{fill:#34a853;}.cls-3{fill:#fbbc05;}.cls-4{fill:#ea4335;}.cls-5{fill:#777;}</style></defs><title>Google Sign In Button</title><g id="btn_google_light_normal" data-name="btn google light normal"><g id="logo_googleg_48dp" data-name="logo googleg 48dp"><path id="Shape" class="cls-1" d="M50.46,26.33A29.77,29.77,0,0,0,50,21.06H25.74V31H39.6a11.85,11.85,0,0,1-5.14,7.77v6.46h8.32c4.87-4.48,7.68-11.08,7.68-18.92Z" transform="translate(0 0)"/><path id="Shape-2" data-name="Shape" class="cls-2" d="M25.74,51.48a24.58,24.58,0,0,0,17-6.24l-8.32-6.46a15.54,15.54,0,0,1-23.12-8.16H2.74V37.3a25.73,25.73,0,0,0,23,14.18Z" transform="translate(0 0)"/><path id="Shape-3" data-name="Shape" class="cls-3" d="M11.34,30.63a15.22,15.22,0,0,1,0-9.78V14.18H2.74a25.79,25.79,0,0,0,0,23.12l8.6-6.67Z" transform="translate(0 0)"/><path id="Shape-4" data-name="Shape" class="cls-4" d="M25.74,10.24a13.91,13.91,0,0,1,9.84,3.85L43,6.71A24.73,24.73,0,0,0,25.74,0a25.73,25.73,0,0,0-23,14.18l8.6,6.67a15.34,15.34,0,0,1,14.4-10.61Z" transform="translate(0 0)"/></g></g><path class="cls-5" d="M132.74,29.35a3.2,3.2,0,0,0-1.25-2.72,16.3,16.3,0,0,0-4.5-2,32,32,0,0,1-5.15-2.07q-5.17-2.79-5.17-7.52a7.32,7.32,0,0,1,1.39-4.39,9,9,0,0,1,4-3,15,15,0,0,1,5.82-1.08,13.63,13.63,0,0,1,5.79,1.18,9.21,9.21,0,0,1,3.95,3.32A8.68,8.68,0,0,1,139,15.93h-6.25a4.09,4.09,0,0,0-1.31-3.24,5.39,5.39,0,0,0-3.69-1.16,5.76,5.76,0,0,0-3.56,1,3,3,0,0,0-1.27,2.55,2.92,2.92,0,0,0,1.49,2.48,16.78,16.78,0,0,0,4.39,1.87q5.33,1.61,7.77,4A7.92,7.92,0,0,1,139,29.3a7.3,7.3,0,0,1-3,6.18,13.05,13.05,0,0,1-8,2.24,15.5,15.5,0,0,1-6.38-1.28,10,10,0,0,1-4.39-3.51,9,9,0,0,1-1.51-5.17H122q0,5,6,5a5.84,5.84,0,0,0,3.48-.91A3,3,0,0,0,132.74,29.35Z" transform="translate(0 0)"/><path class="cls-5" d="M142.8,8.93a3,3,0,0,1,.91-2.23,3.9,3.9,0,0,1,4.93,0,3,3,0,0,1,.92,2.23,3,3,0,0,1-.93,2.25,3.86,3.86,0,0,1-4.9,0A3,3,0,0,1,142.8,8.93Zm6.4,28.37h-6V14.76h6Z" transform="translate(0 0)"/><path class="cls-5" d="M153.28,25.87a13.21,13.21,0,0,1,2.47-8.35,8,8,0,0,1,6.66-3.17,7,7,0,0,1,5.77,2.54l.25-2.12h5.46V36.55a9.61,9.61,0,0,1-1.34,5.15A8.64,8.64,0,0,1,168.76,45a13.34,13.34,0,0,1-5.71,1.15,12.37,12.37,0,0,1-4.83-1,8.59,8.59,0,0,1-3.56-2.55L157.32,39a7.07,7.07,0,0,0,5.46,2.52,5.17,5.17,0,0,0,3.73-1.28,4.79,4.79,0,0,0,1.33-3.63V35.36a7,7,0,0,1-5.48,2.36,8,8,0,0,1-6.57-3.18,13.21,13.21,0,0,1-2.51-8.42v-.25Zm6,.43a8.25,8.25,0,0,0,1.23,4.82,3.9,3.9,0,0,0,3.37,1.75,4.18,4.18,0,0,0,3.94-2.07V21.27a4.17,4.17,0,0,0-3.9-2.07A3.93,3.93,0,0,0,160.54,21,9.31,9.31,0,0,0,159.3,26.3Z" transform="translate(0 0)"/><path class="cls-5" d="M184.05,14.76l.19,2.6a7.87,7.87,0,0,1,6.48-3,6.54,6.54,0,0,1,5.33,2.1q1.75,2.1,1.79,6.29V37.3h-6V22.86a3.92,3.92,0,0,0-.83-2.79,3.72,3.72,0,0,0-2.77-.87,4.14,4.14,0,0,0-3.81,2.17V37.3h-6V14.76Z" transform="translate(0 0)"/><path class="cls-5" d="M213,8.93a3,3,0,0,1,.9-2.23,3.9,3.9,0,0,1,4.93,0,3,3,0,0,1,.92,2.23,3,3,0,0,1-.92,2.25,3.86,3.86,0,0,1-4.9,0A3,3,0,0,1,213,8.93Zm6.4,28.37h-6V14.76h6Z" transform="translate(0 0)"/><path class="cls-5" d="M229.88,14.76l.19,2.6a7.87,7.87,0,0,1,6.48-3,6.55,6.55,0,0,1,5.34,2.1q1.75,2.1,1.79,6.29V37.3h-6V22.86a3.92,3.92,0,0,0-.84-2.79A3.72,3.72,0,0,0,234,19.2a4.14,4.14,0,0,0-3.81,2.17V37.3h-6V14.76Z" transform="translate(0 0)"/><path class="cls-5" d="M278.46,29.12l3-14.35h5.81L281.48,37.3h-5l-4.27-14.18L267.9,37.3h-5l-5.75-22.54h5.81l2.94,14.33L270,14.76h4.35Z" transform="translate(0 0)"/><path class="cls-5" d="M290.17,8.93a3,3,0,0,1,.91-2.23,3.9,3.9,0,0,1,4.93,0,2.94,2.94,0,0,1,.92,2.23,3,3,0,0,1-.93,2.25,3.85,3.85,0,0,1-4.89,0A3,3,0,0,1,290.17,8.93Zm6.4,28.37h-6V14.76h6Z" transform="translate(0 0)"/><path class="cls-5" d="M308.73,9.22v5.54h3.85v4.42h-3.85V30.43a2.67,2.67,0,0,0,.48,1.79,2.4,2.4,0,0,0,1.83.54,9.28,9.28,0,0,0,1.77-.15v4.56a12.49,12.49,0,0,1-3.65.54q-6.33,0-6.46-6.4V19.18h-3.29V14.76h3.29V9.22h6Z" transform="translate(0 0)"/><path class="cls-5" d="M321.81,17.22a7.51,7.51,0,0,1,6-2.87q7.33,0,7.43,8.52V37.3h-6V23a4.22,4.22,0,0,0-.84-2.87,3.57,3.57,0,0,0-2.77-.93,4.09,4.09,0,0,0-3.83,2V37.3h-6v-32h6V17.22Z" transform="translate(0 0)"/><path class="cls-5" d="M374.83,33.47a10.87,10.87,0,0,1-4.77,3.13,20,20,0,0,1-6.83,1.12A13.55,13.55,0,0,1,356.32,36a11.45,11.45,0,0,1-4.58-5,17.56,17.56,0,0,1-1.66-7.69V21.26a18.65,18.65,0,0,1,1.53-7.86A11.35,11.35,0,0,1,356,8.32a12.74,12.74,0,0,1,6.76-1.76q5.39,0,8.44,2.57a11,11,0,0,1,3.6,7.49h-6.08a6.07,6.07,0,0,0-1.84-3.81A5.91,5.91,0,0,0,363,11.6a5.54,5.54,0,0,0-4.85,2.4q-1.67,2.4-1.69,7.12v1.94q0,4.77,1.82,7.21a6.2,6.2,0,0,0,5.31,2.44q3.52,0,5-1.5V26H362.9V21.37h11.94v12.1Z" transform="translate(0 0)"/><path class="cls-5" d="M378.56,25.82a13.36,13.36,0,0,1,1.29-6,9.46,9.46,0,0,1,3.72-4.06,10.83,10.83,0,0,1,5.63-1.44,10.29,10.29,0,0,1,7.45,2.79,11.22,11.22,0,0,1,3.22,7.58l0,1.54a11.79,11.79,0,0,1-2.9,8.32,11.22,11.22,0,0,1-15.55,0c-1.94-2.08-2.91-4.91-2.91-8.49v-.27Zm6,.43a8.46,8.46,0,0,0,1.21,4.91,4.34,4.34,0,0,0,6.88,0c.82-1.12,1.23-2.91,1.23-5.37a8.34,8.34,0,0,0-1.23-4.88,4,4,0,0,0-3.46-1.73,3.93,3.93,0,0,0-3.41,1.72A9.42,9.42,0,0,0,384.58,26.25Z" transform="translate(0 0)"/><path class="cls-5" d="M402.68,25.82a13.34,13.34,0,0,1,1.29-6,9.43,9.43,0,0,1,3.72-4.06,10.82,10.82,0,0,1,5.63-1.44,10.28,10.28,0,0,1,7.45,2.79A11.22,11.22,0,0,1,424,24.72l0,1.54a11.79,11.79,0,0,1-2.9,8.32,11.22,11.22,0,0,1-15.55,0c-1.94-2.08-2.91-4.91-2.91-8.49Zm6,.43a8.43,8.43,0,0,0,1.21,4.91,4.34,4.34,0,0,0,6.88,0c.82-1.12,1.23-2.91,1.23-5.37a8.33,8.33,0,0,0-1.23-4.88,4,4,0,0,0-3.46-1.73,3.93,3.93,0,0,0-3.41,1.72A9.39,9.39,0,0,0,408.7,26.25Z" transform="translate(0 0)"/><path class="cls-5" d="M426.87,25.87a13.22,13.22,0,0,1,2.47-8.35A8,8,0,0,1,436,14.35a7,7,0,0,1,5.77,2.54l.25-2.12h5.46V36.55a9.61,9.61,0,0,1-1.35,5.15A8.65,8.65,0,0,1,442.35,45a13.33,13.33,0,0,1-5.71,1.15,12.37,12.37,0,0,1-4.83-1,8.57,8.57,0,0,1-3.56-2.55L430.91,39a7.06,7.06,0,0,0,5.46,2.52,5.17,5.17,0,0,0,3.73-1.28,4.79,4.79,0,0,0,1.33-3.63V35.36A7,7,0,0,1,436,37.72a8,8,0,0,1-6.57-3.18,13.2,13.2,0,0,1-2.51-8.42v-.25Zm6,.43a8.27,8.27,0,0,0,1.23,4.82,3.9,3.9,0,0,0,3.38,1.75,4.18,4.18,0,0,0,3.94-2.07V21.27a4.17,4.17,0,0,0-3.9-2.07A3.93,3.93,0,0,0,434.13,21,9.32,9.32,0,0,0,432.89,26.3Z" transform="translate(0 0)"/><path class="cls-5" d="M458.45,37.3h-6v-32h6Z" transform="translate(0 0)"/><path class="cls-5" d="M473.78,37.72a11.06,11.06,0,0,1-8.07-3,10.81,10.81,0,0,1-3.11-8.1V26a13.62,13.62,0,0,1,1.31-6.07,9.63,9.63,0,0,1,3.72-4.12,10.47,10.47,0,0,1,5.49-1.45,9.35,9.35,0,0,1,7.28,2.92q2.66,2.92,2.66,8.27V28H468.7a5.59,5.59,0,0,0,1.76,3.54,5.33,5.33,0,0,0,3.72,1.34,6.5,6.5,0,0,0,5.44-2.52l3,3.31a9.06,9.06,0,0,1-3.67,3A12.08,12.08,0,0,1,473.78,37.72ZM473.1,19.2a3.76,3.76,0,0,0-2.9,1.21,6.29,6.29,0,0,0-1.43,3.47h8.37v-.48a4.46,4.46,0,0,0-1.08-3.11A3.88,3.88,0,0,0,473.1,19.2Z" transform="translate(0 0)"/></svg>