<svg id="Layer_1" data-name="Layer 1" xmlns="http://www.w3.org/2000/svg" viewBox="0 0 816 197.66"><defs><style>.cls-1{fill:#4272b7;}.cls-2{fill:#b3b3b3;}.cls-3{fill:#ccc;}</style></defs><path class="cls-1" d="M365,59.57h57.59A6.43,6.43,0,0,1,429,65.88a6.21,6.21,0,0,1-6.2,6.09H365v49.6h57.59a6.43,6.43,0,0,1,6.47,6.31,6.21,6.21,0,0,1-6.2,6.09H365v23.21a2,2,0,0,1-2,2H346.31a2,2,0,0,1-2-2v-120a2,2,0,0,1,2-2H363a2,2,0,0,1,2,2Z" transform="translate(-0.25)"/><rect class="cls-1" x="451.41" y="35.18" width="20.67" height="124" rx="2" ry="2"/><path class="cls-1" d="M261.25,72.23v49.91c16.88,3.38,43.06,13.7,79,33.88V38.34C304.31,58.53,278.14,68.84,261.25,72.23Z" transform="translate(-0.25)"/><path class="cls-1" d="M249.25,87.73C224,84.23,203.59,90.18,182,96.46c-19.06,5.57-38.76,11.32-65.4,12.18-33.8,1.08-68.2-6.17-102.27-21.57a10,10,0,0,0-8.24,18.22C40.59,120.87,75.49,128.75,110,128.75q3.64,0,7.29-.12c29.17-.94,51.06-7.33,70.37-13,20.78-6.06,38.72-11.3,60.55-7.87a9.32,9.32,0,0,0,1.05.1v13a51.24,51.24,0,0,1,10,.9V72.6a51.24,51.24,0,0,1-10,.9V87.73Z" transform="translate(-0.25)"/><path class="cls-1" d="M555.25,122.14V72.23c-16.88-3.38-43.06-13.7-79-33.88V156C512.19,135.83,538.37,125.52,555.25,122.14Z" transform="translate(-0.25)"/><path class="cls-1" d="M567.25,106.63c25.28,3.5,45.66-2.45,67.21-8.73,19.06-5.57,38.76-11.32,65.4-12.18,33.8-1.08,68.2,6.17,102.27,21.57a10,10,0,1,0,8.24-18.22C775.91,73.49,741,65.61,706.51,65.61q-3.64,0-7.29.12c-29.17.94-51.06,7.33-70.37,13-20.78,6.06-38.72,11.3-60.55,7.87a9.32,9.32,0,0,0-1.05-.1v-13a51.24,51.24,0,0,1-10-.9v49.16a51.24,51.24,0,0,1,10-.9V106.63Z" transform="translate(-0.25)"/><polygon class="cls-2" points="435.89 12.14 420.09 20.84 449.6 15.24 442.65 8.29 457.84 0 428.31 4.57 435.89 12.14"/><polygon class="cls-3" points="377.87 186.84 395.38 191.91 370.28 174.81 370.28 184.75 353.49 179.82 377.87 197.66 377.87 186.84"/></svg>