<svg id="Layer_1" data-name="Layer 1" xmlns="http://www.w3.org/2000/svg" viewBox="0 0 647.95 124"><defs><style>.cls-1{fill:#4272b7;}.cls-2{fill:none;stroke:#4272b7;stroke-linecap:round;stroke-miterlimit:10;stroke-width:10px;}</style></defs><title>Disconnected</title><path class="cls-1" d="M284.72,24.39h57.59a6.43,6.43,0,0,1,6.47,6.31,6.21,6.21,0,0,1-6.2,6.09H284.72v49.6h57.59a6.43,6.43,0,0,1,6.47,6.31,6.21,6.21,0,0,1-6.2,6.09H284.72V122a2,2,0,0,1-2,2H266.06a2,2,0,0,1-2-2V2a2,2,0,0,1,2-2h16.67a2,2,0,0,1,2,2Z"/><rect class="cls-1" x="371.4" width="20.67" height="124" rx="2" ry="2"/><path class="cls-1" d="M169,38.32V85.68c15-.34,67.08,11.24,91,35.16V3.16C236.08,27.08,184,38.66,169,38.32Z"/><path class="cls-1" d="M487,38.32V85.68c-15-.34-67.08,11.24-91,35.16V3.16C419.92,27.08,472,38.66,487,38.32Z"/><path class="cls-2" d="M169.5,62.73c-31-7.08-50.15,18.8-91.21,20.73C46.81,84.93,20.9,71.47,5,61"/><path class="cls-2" d="M642.95,112c-31.58-3.35-41.34-34.05-79.55-49.2-29.3-11.61-58.18-7.28-76.61-2.54"/></svg>