<?xml version="1.0" encoding="utf-8"?>
<!-- Generator: Adobe Illustrator 16.0.0, SVG Export Plug-In . SVG Version: 6.00 Build 0)  -->
<!DOCTYPE svg PUBLIC "-//W3C//DTD SVG 1.1//EN" "http://www.w3.org/Graphics/SVG/1.1/DTD/svg11.dtd">
<svg version="1.1" id="Layer_1" xmlns:sketch="http://www.bohemiancoding.com/sketch/ns"
	 xmlns="http://www.w3.org/2000/svg" xmlns:xlink="http://www.w3.org/1999/xlink" x="0px" y="0px" width="483.057px"
	 height="51.483px" viewBox="-138.219 -15.788 483.057 51.483" enable-background="new -138.219 -15.788 483.057 51.483"
	 xml:space="preserve">
<g>
	<g id="btn_google_light_normal" transform="translate(-1.000000, -1.000000)" sketch:type="MSArtboardGroup">
		<g id="logo_googleg_48dp" transform="translate(15.000000, 15.000000)" sketch:type="MSLayerGroup">
			<path id="Shape" sketch:type="MSShapeGroup" fill="#4285F4" d="M-101.763-3.461c0-1.825-0.168-3.581-0.47-5.265h-24.244V1.23
				h13.854c-0.598,3.218-2.411,5.946-5.137,7.771v6.457h8.32C-104.573,10.978-101.763,4.377-101.763-3.461L-101.763-3.461z"/>
			<path id="Shape_1_" sketch:type="MSShapeGroup" fill="#34A853" d="M-126.477,21.695c6.949,0,12.775-2.304,17.038-6.237
				l-8.32-6.457c-2.305,1.544-5.254,2.454-8.718,2.454c-6.705,0-12.379-4.524-14.404-10.611h-8.6v6.67
				C-145.246,15.928-136.54,21.695-126.477,21.695L-126.477,21.695z"/>
			<path id="Shape_2_" sketch:type="MSShapeGroup" fill="#FBBC05" d="M-140.881,0.844c-0.514-1.544-0.807-3.192-0.807-4.891
				c0-1.697,0.293-3.346,0.807-4.891v-6.67h-8.6c-1.743,3.476-2.737,7.407-2.737,11.561s0.994,8.083,2.737,11.561L-140.881,0.844
				L-140.881,0.844z"/>
			<path id="Shape_3_" sketch:type="MSShapeGroup" fill="#EA4335" d="M-126.477-19.55c3.779,0,7.173,1.299,9.84,3.849l7.382-7.382
				c-4.458-4.155-10.285-6.705-17.223-6.705c-10.063,0-18.769,5.768-23.004,14.181l8.6,6.67
				C-138.856-15.022-133.182-19.55-126.477-19.55L-126.477-19.55z"/>
		</g>
	</g>
	<g>
		<path fill="#777777" d="M-5.477,13.557c0-1.184-0.419-2.09-1.251-2.717c-0.832-0.634-2.333-1.299-4.5-2
			c-2.167-0.701-3.882-1.394-5.145-2.072c-3.444-1.863-5.167-4.369-5.167-7.522c0-1.639,0.461-3.1,1.386-4.385
			c0.924-1.285,2.251-2.288,3.98-3.011c1.729-0.721,3.67-1.081,5.821-1.081c2.167,0,4.098,0.391,5.793,1.176
			c1.692,0.785,3.01,1.891,3.946,3.324c0.938,1.43,1.408,3.053,1.408,4.874h-6.251c0-1.388-0.438-2.469-1.313-3.24
			c-0.875-0.771-2.104-1.157-3.687-1.157c-1.528,0-2.715,0.325-3.561,0.97c-0.85,0.645-1.271,1.497-1.271,2.552
			c0,0.986,0.494,1.81,1.489,2.478c0.991,0.667,2.455,1.291,4.385,1.874c3.556,1.07,6.145,2.397,7.77,3.98
			c1.626,1.583,2.439,3.556,2.439,5.911c0,2.626-0.995,4.688-2.98,6.179c-1.986,1.491-4.659,2.239-8.019,2.239
			c-2.335,0-4.46-0.43-6.377-1.284c-1.916-0.849-3.377-2.021-4.385-3.508c-1.005-1.486-1.509-3.206-1.509-5.167h6.271
			c0,3.347,2,5.023,6,5.023c1.486,0,2.645-0.302,3.477-0.905C-5.896,15.484-5.477,14.641-5.477,13.557z"/>
		<path fill="#777777" d="M4.584-6.857c0-0.902,0.301-1.645,0.905-2.229c0.606-0.583,1.428-0.877,2.469-0.877
			c1.028,0,1.847,0.293,2.458,0.877c0.611,0.584,0.916,1.327,0.916,2.229c0,0.916-0.307,1.665-0.925,2.249
			c-0.62,0.583-1.436,0.877-2.449,0.877c-1.014,0-1.829-0.293-2.447-0.877C4.894-5.192,4.584-5.941,4.584-6.857z M10.98,21.511
			H4.939V-1.025h6.041V21.511z"/>
		<path fill="#777777" d="M15.064,10.078c0-3.458,0.821-6.243,2.466-8.352c1.648-2.112,3.866-3.167,6.656-3.167
			c2.472,0,4.396,0.847,5.771,2.542l0.251-2.125h5.458v21.788c0,1.973-0.446,3.688-1.344,5.146
			c-0.896,1.458-2.155,2.569-3.781,3.334c-1.626,0.761-3.528,1.146-5.706,1.146c-1.654,0-3.266-0.329-4.835-0.988
			c-1.57-0.658-2.757-1.515-3.562-2.553l2.668-3.664c1.5,1.675,3.318,2.52,5.458,2.52c1.595,0,2.838-0.431,3.729-1.285
			c0.889-0.85,1.333-2.063,1.333-3.631v-1.213c-1.389,1.57-3.216,2.356-5.48,2.356c-2.707,0-4.899-1.061-6.573-3.177
			c-1.673-2.118-2.508-4.928-2.508-8.424V10.078z M21.083,10.508c0,2.049,0.41,3.657,1.229,4.819
			c0.819,1.167,1.944,1.749,3.374,1.749c1.836,0,3.148-0.693,3.939-2.073V5.483c-0.805-1.38-2.104-2.069-3.896-2.069
			c-1.444,0-2.579,0.592-3.405,1.779C21.497,6.377,21.083,8.151,21.083,10.508z"/>
		<path fill="#777777" d="M45.833-1.025l0.188,2.604c1.611-2.014,3.771-3.02,6.478-3.02c2.391,0,4.167,0.702,5.334,2.104
			c1.165,1.402,1.763,3.5,1.791,6.292v14.556h-6.02V7.067c0-1.282-0.279-2.209-0.835-2.788s-1.478-0.866-2.771-0.866
			c-1.692,0-2.964,0.723-3.811,2.17v15.927h-6.021V-1.025H45.833z"/>
		<path fill="#777777" d="M74.768-6.857c0-0.902,0.302-1.645,0.905-2.229c0.605-0.583,1.427-0.877,2.469-0.877
			c1.027,0,1.847,0.293,2.458,0.877c0.612,0.584,0.916,1.327,0.916,2.229c0,0.916-0.307,1.665-0.924,2.249
			c-0.62,0.583-1.437,0.877-2.45,0.877s-1.829-0.293-2.446-0.877C75.078-5.192,74.768-5.941,74.768-6.857z M81.164,21.511h-6.042
			V-1.025h6.042V21.511z"/>
		<path fill="#777777" d="M91.663-1.025l0.188,2.604c1.611-2.014,3.771-3.02,6.478-3.02c2.391,0,4.167,0.702,5.336,2.104
			c1.164,1.402,1.76,3.5,1.789,6.292v14.556h-6.019V7.067c0-1.282-0.28-2.209-0.836-2.788s-1.478-0.866-2.771-0.866
			c-1.692,0-2.964,0.723-3.811,2.17v15.927h-6.021V-1.025H91.663z"/>
		<path fill="#777777" d="M140.24,13.328l2.959-14.353h5.813l-5.749,22.536h-5.041L133.953,7.33l-4.272,14.182h-5.023l-5.746-22.536
			h5.813l2.936,14.33l4.126-14.33h4.353L140.24,13.328z"/>
		<path fill="#777777" d="M151.95-6.857c0-0.902,0.301-1.645,0.906-2.229c0.604-0.583,1.428-0.877,2.469-0.877
			c1.026,0,1.847,0.293,2.457,0.877c0.613,0.584,0.917,1.327,0.917,2.229c0,0.916-0.307,1.665-0.926,2.249
			c-0.619,0.583-1.434,0.877-2.448,0.877c-1.016,0-1.829-0.293-2.446-0.877C152.26-5.192,151.95-5.941,151.95-6.857z
			 M158.347,21.511h-6.041V-1.025h6.041V21.511z"/>
		<path fill="#777777" d="M170.513-6.566v5.542h3.854v4.416h-3.854v11.25c0,0.833,0.16,1.43,0.479,1.788
			c0.318,0.362,0.929,0.542,1.832,0.542c0.668,0,1.259-0.045,1.772-0.146v4.563c-1.179,0.358-2.395,0.542-3.647,0.542
			c-4.221,0-6.374-2.133-6.457-6.395V3.391h-3.288v-4.416h3.288v-5.542H170.513z"/>
		<path fill="#777777" d="M183.596,1.433c1.597-1.916,3.601-2.875,6.021-2.875c4.889,0,7.366,2.841,7.435,8.519v14.434h-6.018V7.212
			c0-1.293-0.281-2.251-0.835-2.871c-0.556-0.618-1.479-0.927-2.772-0.927c-1.763,0-3.039,0.682-3.83,2.044v16.053h-6.021v-31.994
			h6.021V1.433z"/>
		<path fill="#777777" d="M236.613,17.679c-1.124,1.346-2.719,2.391-4.771,3.134c-2.056,0.744-4.332,1.117-6.832,1.117
			c-2.624,0-4.93-0.575-6.907-1.72c-1.979-1.144-3.507-2.809-4.582-4.988c-1.075-2.178-1.629-4.739-1.657-7.686V5.475
			c0-3.028,0.511-5.648,1.531-7.863c1.023-2.215,2.494-3.91,4.415-5.083c1.924-1.173,4.181-1.759,6.764-1.759
			c3.593,0,6.405,0.857,8.436,2.572c2.027,1.715,3.229,4.21,3.604,7.489h-6.082c-0.28-1.737-0.895-3.008-1.844-3.813
			c-0.954-0.804-2.262-1.209-3.928-1.209c-2.125,0-3.741,0.799-4.854,2.397c-1.112,1.598-1.674,3.972-1.688,7.125v1.938
			c0,3.179,0.605,5.58,1.815,7.206c1.207,1.625,2.976,2.436,5.313,2.436c2.346,0,4.017-0.498,5.018-1.498v-5.227h-5.686V5.578
			h11.937V17.679z"/>
		<path fill="#777777" d="M240.34,10.036c0-2.234,0.431-4.229,1.293-5.978c0.86-1.751,2.103-3.103,3.719-4.062
			c1.617-0.96,3.496-1.438,5.632-1.438c3.042,0,5.524,0.931,7.452,2.791c1.921,1.863,2.996,4.391,3.217,7.584l0.04,1.542
			c0,3.457-0.967,6.227-2.896,8.321c-1.929,2.09-4.519,3.134-7.77,3.134c-3.249,0-5.844-1.043-7.778-3.128
			c-1.938-2.077-2.908-4.915-2.908-8.495V10.036z M246.361,10.463c0,2.138,0.404,3.78,1.207,4.914
			c0.809,1.129,1.958,1.699,3.458,1.699c1.459,0,2.598-0.559,3.418-1.682c0.819-1.118,1.229-2.911,1.229-5.368
			c0-2.1-0.41-3.729-1.229-4.882c-0.82-1.156-1.973-1.732-3.461-1.732c-1.471,0-2.606,0.573-3.415,1.72
			C246.766,6.282,246.361,8.059,246.361,10.463z"/>
		<path fill="#777777" d="M264.465,10.036c0-2.234,0.43-4.229,1.293-5.978c0.86-1.751,2.099-3.103,3.719-4.062
			c1.617-0.96,3.495-1.438,5.631-1.438c3.043,0,5.525,0.931,7.452,2.791c1.921,1.863,2.996,4.391,3.217,7.584l0.04,1.542
			c0,3.457-0.966,6.227-2.896,8.321c-1.93,2.09-4.519,3.134-7.771,3.134c-3.248,0-5.843-1.043-7.778-3.128
			c-1.938-2.077-2.907-4.915-2.907-8.495V10.036z M270.486,10.463c0,2.138,0.401,3.78,1.207,4.914
			c0.809,1.129,1.958,1.699,3.457,1.699c1.46,0,2.598-0.559,3.418-1.682c0.82-1.118,1.23-2.911,1.23-5.368
			c0-2.1-0.41-3.729-1.23-4.882c-0.82-1.156-1.973-1.732-3.461-1.732c-1.471,0-2.605,0.573-3.414,1.72
			C270.888,6.282,270.486,8.059,270.486,10.463z"/>
		<path fill="#777777" d="M288.652,10.078c0-3.458,0.823-6.243,2.466-8.352c1.648-2.112,3.868-3.167,6.657-3.167
			c2.472,0,4.396,0.847,5.772,2.542l0.249-2.125h5.459v21.788c0,1.973-0.447,3.688-1.345,5.146s-2.156,2.569-3.781,3.334
			c-1.626,0.761-3.527,1.146-5.706,1.146c-1.654,0-3.266-0.329-4.834-0.988c-1.571-0.658-2.758-1.515-3.562-2.553l2.667-3.664
			c1.499,1.675,3.317,2.52,5.456,2.52c1.597,0,2.839-0.431,3.73-1.285c0.889-0.85,1.333-2.063,1.333-3.631v-1.213
			c-1.391,1.57-3.217,2.356-5.482,2.356c-2.706,0-4.896-1.061-6.571-3.177c-1.675-2.118-2.509-4.928-2.509-8.424V10.078z
			 M294.674,10.508c0,2.049,0.41,3.657,1.227,4.819c0.82,1.167,1.944,1.749,3.375,1.749c1.835,0,3.148-0.693,3.939-2.073V5.483
			c-0.806-1.38-2.104-2.069-3.896-2.069c-1.445,0-2.58,0.592-3.406,1.779C295.087,6.377,294.674,8.151,294.674,10.508z"/>
		<path fill="#777777" d="M320.234,21.511h-6.041v-31.994h6.041V21.511z"/>
		<path fill="#777777" d="M335.565,21.93c-3.303,0-5.995-1.015-8.071-3.043c-2.075-2.028-3.113-4.727-3.113-8.099v-0.583
			c0-2.263,0.438-4.288,1.313-6.073c0.875-1.785,2.113-3.159,3.717-4.125c1.605-0.963,3.438-1.447,5.49-1.447
			c3.082,0,5.511,0.973,7.279,2.917c1.772,1.944,2.658,4.701,2.658,8.271v2.454h-14.355c0.197,1.475,0.782,2.654,1.763,3.542
			c0.978,0.888,2.22,1.335,3.719,1.335c2.317,0,4.132-0.838,5.437-2.52l2.959,3.313c-0.903,1.273-2.125,2.273-3.667,2.987
			C339.149,21.573,337.44,21.93,335.565,21.93z M334.88,3.414c-1.195,0-2.164,0.405-2.904,1.212
			c-0.742,0.81-1.222,1.969-1.428,3.475h8.372V7.617c-0.025-1.337-0.387-2.374-1.084-3.106
			C337.143,3.779,336.156,3.414,334.88,3.414z"/>
	</g>
</g>
</svg>
