<?xml version="1.0" encoding="utf-8"?>
<!-- Generator: Adobe Illustrator 21.1.0, SVG Export Plug-In . SVG Version: 6.00 Build 0)  -->
<svg version="1.1" id="Layer_1" xmlns="http://www.w3.org/2000/svg" xmlns:xlink="http://www.w3.org/1999/xlink" x="0px" y="0px"
	 viewBox="0 0 1202.001 217.218" enable-background="new 0 0 1202.001 217.218" xml:space="preserve">
<g>
	<g>
		<defs>
			<rect id="SVGID_1_" y="0" width="231.326" height="200"/>
		</defs>
		<clipPath id="SVGID_2_">
			<use xlink:href="#SVGID_1_"  overflow="visible"/>
		</clipPath>
		<g clip-path="url(#SVGID_2_)">
			<defs>
				<rect id="SVGID_3_" y="0" width="231.326" height="200"/>
			</defs>
			<clipPath id="SVGID_4_">
				<use xlink:href="#SVGID_3_"  overflow="visible"/>
			</clipPath>
			<g clip-path="url(#SVGID_4_)">
				<defs>
					<rect id="SVGID_5_" y="0" width="231.326" height="200"/>
				</defs>
				<clipPath id="SVGID_6_">
					<use xlink:href="#SVGID_5_"  overflow="visible"/>
				</clipPath>
				<path clip-path="url(#SVGID_6_)" fill="#E6E6E6" d="M216.001,167.554H79.097c-8.464,0-15.325-6.862-15.325-15.325V34.737
					h167.554v117.492C231.326,160.693,224.465,167.554,216.001,167.554"/>
				<path clip-path="url(#SVGID_6_)" fill="#666666" d="M92.027,135.011c-0.85-0.354-1.523-0.866-2.018-1.54
					c-0.496-0.671-0.743-1.503-0.743-2.494c0-1.204,0.407-2.247,1.221-3.132c0.813-0.884,1.822-1.327,3.026-1.327
					c0.637,0,1.308,0.143,2.017,0.425c5.096,2.053,10.722,3.078,16.88,3.078c5.52,0,10.173-0.903,13.96-2.706
					c3.785-1.805,5.679-4.831,5.679-9.078c0-8.917-7.821-13.377-23.462-13.377h-1.699c-1.204,0-2.248-0.44-3.131-1.327
					c-0.886-0.884-1.327-1.927-1.327-3.131c0-1.202,0.441-2.246,1.327-3.131c0.884-0.885,1.928-1.327,3.131-1.327h0.637
					c7.077,0,12.491-1.078,16.244-3.238c3.751-2.159,5.626-5.361,5.626-9.608c0-3.397-1.417-6.086-4.247-8.068
					c-2.831-1.98-7.006-2.972-12.527-2.972c-5.945,0-11.43,1.167-16.455,3.503c-0.708,0.283-1.346,0.424-1.911,0.424
					c-1.062,0-1.982-0.372-2.761-1.115c-0.78-0.744-1.168-1.681-1.168-2.813c0-1.628,0.707-2.831,2.124-3.61
					c6.794-3.611,13.801-5.415,21.02-5.415c8.138,0,14.437,1.664,18.896,4.99c4.46,3.327,6.689,8.033,6.689,14.119
					c0,4.883-1.221,8.723-3.663,11.518c-2.442,2.797-5.504,4.867-9.183,6.21c4.034,0.922,7.625,2.851,10.775,5.787
					c3.149,2.938,4.724,7.309,4.724,13.111c0,6.512-2.565,11.555-7.696,15.128c-5.132,3.574-11.731,5.361-19.799,5.361
					C106.359,139.257,98.962,137.842,92.027,135.011"/>
				<path clip-path="url(#SVGID_6_)" fill="#666666" d="M165.278,136.922c-0.85-0.849-1.274-1.911-1.274-3.185
					s0.424-2.352,1.274-3.238c0.849-0.884,1.911-1.327,3.185-1.327h12.633V75.348l-10.828,5.309
					c-0.992,0.425-1.805,0.638-2.442,0.638c-1.346,0-2.442-0.425-3.292-1.274c-0.849-0.849-1.274-1.946-1.274-3.292
					c0-1.98,0.919-3.432,2.761-4.352l14.438-7.538c0.99-0.493,1.98-0.743,2.973-0.743h2.229c1.414,0,2.618,0.496,3.609,1.487
					c0.991,0.992,1.487,2.194,1.487,3.61v59.981h10.51c1.274,0,2.352,0.443,3.239,1.327c0.884,0.886,1.326,1.964,1.326,3.238
					s-0.442,2.336-1.326,3.185c-0.887,0.849-1.965,1.274-3.239,1.274h-32.804C167.188,138.196,166.127,137.771,165.278,136.922"/>
				<path clip-path="url(#SVGID_6_)" fill="#4272B7" d="M216.001,0H79.097c-8.464,0-15.325,6.862-15.325,15.325v19.412h167.554
					V15.325C231.326,6.862,224.465,0,216.001,0 M94.422,25.542c-4.514,0-8.173-3.66-8.173-8.173c0-4.514,3.66-8.173,8.173-8.173
					c4.514,0,8.173,3.66,8.173,8.173C102.596,21.882,98.936,25.542,94.422,25.542 M200.676,25.542c-4.514,0-8.173-3.66-8.173-8.173
					c0-4.514,3.66-8.173,8.173-8.173c4.514,0,8.173,3.66,8.173,8.173C208.85,21.882,205.19,25.542,200.676,25.542"/>
				<g opacity="0.33" clip-path="url(#SVGID_6_)">
					<g>
						<defs>
							<rect id="SVGID_7_" y="106.417" width="191.073" height="93.583"/>
						</defs>
						<clipPath id="SVGID_8_">
							<use xlink:href="#SVGID_7_"  overflow="visible"/>
						</clipPath>
						<path clip-path="url(#SVGID_8_)" fill="#4272B7" d="M0,110.737c73.959,118.231,191.073,84.944,191.073,84.944
							C117.114,77.45,0,110.737,0,110.737"/>
					</g>
				</g>
			</g>
		</g>
	</g>
</g>
<g id="Original_Text" display="none">
	<path display="inline" fill="#4272B7" d="M266.858,164.875c-1.797-1.864-2.692-4.163-2.692-6.893c0-1.147,0.356-2.585,1.077-4.308
		l54.926-129.67c1.148-2.585,2.763-4.702,4.847-6.354c2.08-1.649,4.631-2.477,7.646-2.477h2.154c3.016,0,5.563,0.828,7.646,2.477
		c2.08,1.652,3.695,3.77,4.847,6.354l54.926,129.67c0.717,1.723,1.077,3.16,1.077,4.308c0,2.729-0.898,5.028-2.692,6.893
		c-1.797,1.865-4.13,2.801-7,2.801c-2.013,0-3.844-0.539-5.493-1.615c-1.652-1.077-2.908-2.548-3.77-4.416l-14.001-33.603h-73.235
		l-14.001,33.603c-0.862,1.868-2.121,3.339-3.77,4.416c-1.652,1.076-3.483,1.615-5.493,1.615
		C270.984,167.676,268.652,166.741,266.858,164.875z M304.66,110.164h58.158L333.739,40.16L304.66,110.164z"/>
	<path display="inline" fill="#4272B7" d="M432.605,214.31c-1.868-1.938-2.8-4.274-2.8-7.001V65.362c0-2.727,0.932-5.025,2.8-6.893
		c1.864-1.864,4.163-2.8,6.893-2.8c2.726,0,5.062,0.936,7,2.8c1.938,1.868,2.908,4.167,2.908,6.893v5.601
		c10.48-10.912,22.758-16.371,36.833-16.371c8.902,0,17.339,2.262,25.309,6.785c7.97,4.523,14.432,11.13,19.386,19.817
		c4.955,8.689,7.432,18.847,7.432,30.479s-2.477,21.792-7.432,30.479c-4.954,8.689-11.416,15.293-19.386,19.816
		s-16.407,6.785-25.309,6.785c-14.075,0-26.353-5.456-36.833-16.371v54.927c0,2.871-0.936,5.24-2.8,7.108
		c-1.868,1.864-4.237,2.801-7.108,2.801C436.768,217.218,434.469,216.248,432.605,214.31z M509.071,140.321
		c6.462-6.748,9.693-16.297,9.693-28.648c0-12.349-3.231-21.896-9.693-28.647c-6.462-6.748-15.007-10.124-25.632-10.124
		c-6.607,0-12.816,1.474-18.632,4.415c-5.815,2.945-10.952,6.859-15.401,11.739v45.234c4.449,4.883,9.585,8.798,15.401,11.739
		c5.816,2.944,12.025,4.415,18.632,4.415C494.064,150.444,502.61,147.072,509.071,140.321z"/>
	<path display="inline" fill="#4272B7" d="M571.321,140.321V73.546h-15.293c-1.151,0-2.12-0.394-2.908-1.185
		c-0.791-0.787-1.185-1.757-1.185-2.907c0-1.434,0.646-2.655,1.938-3.662l29.294-28.648c1.292-1.292,2.511-1.938,3.662-1.938
		c1.147,0,2.117,0.431,2.908,1.292c0.788,0.861,1.185,1.868,1.185,3.015v17.232h24.34c2.44,0,4.449,0.791,6.031,2.37
		c1.578,1.582,2.369,3.591,2.369,6.031c0,2.299-0.791,4.274-2.369,5.924c-1.582,1.652-3.591,2.477-6.031,2.477h-24.34v65.051
		c0,5.601,1.326,9.154,3.985,10.662c2.656,1.508,5.994,2.262,10.016,2.262c2.871,0,5.742-0.431,8.616-1.292
		c0.572-0.142,1.185-0.286,1.831-0.431c0.646-0.142,1.471-0.216,2.477-0.216c2.009,0,3.803,0.754,5.385,2.262
		c1.578,1.508,2.369,3.339,2.369,5.493c0,3.305-1.652,5.815-4.954,7.538c-5.6,2.585-11.561,3.878-17.878,3.878
		C581.802,168.753,571.321,159.276,571.321,140.321z"/>
	<path display="inline" fill="#4272B7" d="M648.647,31.113c-2.154-2.154-3.231-4.739-3.231-7.754v-0.861
		c0-3.016,1.077-5.601,3.231-7.754c2.154-2.154,4.739-3.231,7.754-3.231h1.292c3.016,0,5.601,1.077,7.754,3.231
		c2.154,2.154,3.23,4.739,3.23,7.754v0.861c0,3.016-1.076,5.601-3.23,7.754c-2.154,2.154-4.739,3.231-7.754,3.231h-1.292
		C653.386,34.344,650.801,33.267,648.647,31.113z M649.94,164.875c-1.868-1.864-2.8-4.163-2.8-6.893V65.576
		c0-2.726,0.932-5.062,2.8-7c1.864-1.938,4.163-2.908,6.893-2.908c2.871,0,5.24,0.936,7.108,2.8
		c1.865,1.868,2.801,4.238,2.801,7.108v92.406c0,2.729-0.97,5.028-2.908,6.893c-1.938,1.865-4.274,2.801-7,2.801
		C654.103,167.676,651.804,166.741,649.94,164.875z"/>
	<path display="inline" fill="#39629C" d="M705.297,163.799c-1.868-1.865-2.8-4.164-2.8-6.894V26.159c0-2.726,0.932-5.062,2.8-7
		c1.864-1.938,4.163-2.908,6.893-2.908h50.835c15.363,0,27.247,3.52,35.648,10.554c8.4,7.038,12.6,16.515,12.6,28.433
		c0,8.33-1.975,15.26-5.923,20.786c-3.951,5.529-9.013,9.659-15.186,12.386c8.616,2.729,15.687,7.107,21.217,13.139
		c5.526,6.031,8.293,13.645,8.293,22.833c0,13.213-4.453,23.552-13.354,31.017c-8.906,7.469-22.906,11.201-42.004,11.201h-52.126
		C709.46,166.599,707.161,165.666,705.297,163.799z M757.854,81.301c12.779,0,21.755-2.154,26.924-6.462
		c5.17-4.308,7.755-10.339,7.755-18.094c0-6.748-2.767-12.133-8.292-16.155c-5.53-4.019-13.106-6.031-22.725-6.031h-39.418v46.742
		H757.854z M762.378,148.29c13.926,0,23.801-2.154,29.617-6.462c5.815-4.309,8.724-10.41,8.724-18.31
		c0-16.37-12.709-24.555-38.126-24.555h-40.494v49.326H762.378z"/>
	<path display="inline" fill="#39629C" d="M866.2,161.645c-8.33-4.739-14.754-11.45-19.277-20.14
		c-4.523-8.687-6.785-18.632-6.785-29.833c0-11.2,2.262-21.143,6.785-29.833c4.523-8.687,10.947-15.4,19.277-20.14
		c8.327-4.739,18.02-7.108,29.08-7.108c10.91,0,20.533,2.369,28.863,7.108c8.326,4.739,14.788,11.453,19.385,20.14
		c4.595,8.69,6.893,18.633,6.893,29.833c0,11.201-2.298,21.146-6.893,29.833c-4.597,8.689-11.059,15.4-19.385,20.14
		c-8.33,4.738-17.953,7.108-28.863,7.108C884.219,168.753,874.527,166.383,866.2,161.645z M912.188,146.783
		c5.385-2.727,9.834-7.034,13.354-12.924c3.517-5.887,5.277-13.355,5.277-22.401c0-8.902-1.761-16.297-5.277-22.187
		c-3.521-5.887-7.97-10.157-13.354-12.816c-5.385-2.655-11.022-3.984-16.908-3.984c-6.031,0-11.74,1.329-17.125,3.984
		c-5.385,2.659-9.801,6.93-13.247,12.816c-3.446,5.89-5.169,13.284-5.169,22.187c0,9.046,1.723,16.515,5.169,22.401
		c3.446,5.89,7.862,10.197,13.247,12.924c5.385,2.729,11.094,4.093,17.125,4.093C901.166,150.875,906.803,149.512,912.188,146.783z"
		/>
	<path display="inline" fill="#39629C" d="M997.161,161.645c-8.33-4.739-14.755-11.45-19.278-20.14
		c-4.523-8.687-6.785-18.632-6.785-29.833c0-11.2,2.262-21.143,6.785-29.833c4.523-8.687,10.948-15.4,19.278-20.14
		c8.326-4.739,18.02-7.108,29.079-7.108c10.911,0,20.533,2.369,28.863,7.108c8.326,4.739,14.788,11.453,19.386,20.14
		c4.594,8.69,6.893,18.633,6.893,29.833c0,11.201-2.299,21.146-6.893,29.833c-4.598,8.689-11.06,15.4-19.386,20.14
		c-8.33,4.738-17.952,7.108-28.863,7.108C1015.18,168.753,1005.487,166.383,997.161,161.645z M1043.148,146.783
		c5.386-2.727,9.835-7.034,13.355-12.924c3.517-5.887,5.277-13.355,5.277-22.401c0-8.902-1.761-16.297-5.277-22.187
		c-3.521-5.887-7.97-10.157-13.355-12.816c-5.385-2.655-11.022-3.984-16.908-3.984c-6.031,0-11.739,1.329-17.124,3.984
		c-5.386,2.659-9.801,6.93-13.247,12.816c-3.446,5.89-5.17,13.284-5.17,22.187c0,9.046,1.724,16.515,5.17,22.401
		c3.446,5.89,7.861,10.197,13.247,12.924c5.385,2.729,11.093,4.093,17.124,4.093
		C1032.126,150.875,1037.763,149.512,1043.148,146.783z"/>
	<path display="inline" fill="#39629C" d="M1111.535,164.875c-1.867-1.864-2.8-4.163-2.8-6.893V18.189c0-2.726,0.933-5.062,2.8-7
		c1.865-1.938,4.163-2.908,6.893-2.908c2.727,0,5.063,0.969,7.001,2.908s2.908,4.274,2.908,7v88.098l51.265-47.388
		c2.154-1.865,4.308-2.8,6.462-2.8c3.302,0,5.708,0.936,7.216,2.8c1.508,1.868,2.262,4.093,2.262,6.677
		c0,2.444-1.222,4.884-3.662,7.324l-31.018,27.786l38.987,51.695c1.434,1.868,2.154,3.807,2.154,5.816
		c0,2.874-0.936,5.169-2.8,6.893c-1.868,1.724-4.237,2.585-7.108,2.585c-1.438,0-2.874-0.36-4.309-1.077
		c-1.437-0.717-2.658-1.724-3.661-3.016l-37.049-50.403l-18.739,17.017v27.786c0,2.729-0.97,5.028-2.908,6.893
		c-1.938,1.865-4.274,2.801-7.001,2.801C1115.698,167.676,1113.4,166.741,1111.535,164.875z"/>
</g>
<g id="Text_Outlines">
	<path fill="#4272B7" d="M266.858,164.875c-1.797-1.864-2.692-4.163-2.692-6.893c0-1.147,0.356-2.585,1.077-4.308l54.926-129.67
		c1.148-2.585,2.763-4.702,4.847-6.354c2.08-1.649,4.631-2.477,7.646-2.477h2.154c3.016,0,5.563,0.828,7.646,2.477
		c2.08,1.652,3.695,3.77,4.847,6.354l54.926,129.67c0.717,1.723,1.077,3.16,1.077,4.308c0,2.729-0.898,5.028-2.692,6.893
		c-1.797,1.865-4.13,2.801-7,2.801c-2.013,0-3.844-0.539-5.493-1.615c-1.652-1.077-2.908-2.548-3.77-4.416l-14.001-33.603h-73.235
		l-14.001,33.603c-0.862,1.868-2.121,3.339-3.77,4.416c-1.652,1.076-3.483,1.615-5.493,1.615
		C270.984,167.676,268.652,166.741,266.858,164.875z M304.66,110.164h58.158L333.739,40.16L304.66,110.164z"/>
	<path fill="#4272B7" d="M432.605,214.31c-1.868-1.938-2.8-4.274-2.8-7.001V65.362c0-2.727,0.932-5.025,2.8-6.893
		c1.864-1.864,4.163-2.8,6.893-2.8c2.726,0,5.062,0.936,7,2.8c1.938,1.868,2.908,4.167,2.908,6.893v5.601
		c10.48-10.912,22.758-16.371,36.833-16.371c8.902,0,17.339,2.262,25.309,6.785c7.97,4.523,14.432,11.13,19.386,19.817
		c4.955,8.689,7.432,18.847,7.432,30.479s-2.477,21.792-7.432,30.479c-4.954,8.689-11.416,15.293-19.386,19.816
		s-16.407,6.785-25.309,6.785c-14.075,0-26.353-5.456-36.833-16.371v54.927c0,2.871-0.936,5.24-2.8,7.108
		c-1.868,1.864-4.237,2.801-7.108,2.801C436.768,217.218,434.469,216.248,432.605,214.31z M509.071,140.321
		c6.462-6.748,9.693-16.297,9.693-28.648c0-12.349-3.231-21.896-9.693-28.647c-6.462-6.748-15.007-10.124-25.632-10.124
		c-6.607,0-12.816,1.474-18.632,4.415c-5.815,2.945-10.952,6.859-15.401,11.739v45.234c4.449,4.883,9.585,8.798,15.401,11.739
		c5.816,2.944,12.025,4.415,18.632,4.415C494.064,150.444,502.61,147.072,509.071,140.321z"/>
	<path fill="#4272B7" d="M571.321,140.321V73.546h-15.293c-1.151,0-2.12-0.394-2.908-1.185c-0.791-0.787-1.185-1.757-1.185-2.907
		c0-1.434,0.646-2.655,1.938-3.662l29.294-28.648c1.292-1.292,2.511-1.938,3.662-1.938c1.147,0,2.117,0.431,2.908,1.292
		c0.788,0.861,1.185,1.868,1.185,3.015v17.232h24.34c2.44,0,4.449,0.791,6.031,2.37c1.578,1.582,2.369,3.591,2.369,6.031
		c0,2.299-0.791,4.274-2.369,5.924c-1.582,1.652-3.591,2.477-6.031,2.477h-24.34v65.051c0,5.601,1.326,9.154,3.985,10.662
		c2.656,1.508,5.994,2.262,10.016,2.262c2.871,0,5.742-0.431,8.616-1.292c0.572-0.142,1.185-0.286,1.831-0.431
		c0.646-0.142,1.471-0.216,2.477-0.216c2.009,0,3.803,0.754,5.385,2.262c1.578,1.508,2.369,3.339,2.369,5.493
		c0,3.305-1.652,5.815-4.954,7.538c-5.6,2.585-11.561,3.878-17.878,3.878C581.802,168.753,571.321,159.276,571.321,140.321z"/>
	<path fill="#4272B7" d="M648.647,31.113c-2.154-2.154-3.231-4.739-3.231-7.754v-0.861c0-3.016,1.077-5.601,3.231-7.754
		c2.154-2.154,4.739-3.231,7.754-3.231h1.292c3.016,0,5.601,1.077,7.754,3.231c2.154,2.154,3.23,4.739,3.23,7.754v0.861
		c0,3.016-1.076,5.601-3.23,7.754c-2.154,2.154-4.739,3.231-7.754,3.231h-1.292C653.386,34.344,650.801,33.267,648.647,31.113z
		 M649.94,164.875c-1.868-1.864-2.8-4.163-2.8-6.893V65.576c0-2.726,0.932-5.062,2.8-7c1.864-1.938,4.163-2.908,6.893-2.908
		c2.871,0,5.24,0.936,7.108,2.8c1.865,1.868,2.801,4.238,2.801,7.108v92.406c0,2.729-0.97,5.028-2.908,6.893
		c-1.938,1.865-4.274,2.801-7,2.801C654.103,167.676,651.804,166.741,649.94,164.875z"/>
	<path fill="#39629C" d="M705.297,163.799c-1.868-1.865-2.8-4.164-2.8-6.894V26.159c0-2.726,0.932-5.062,2.8-7
		c1.864-1.938,4.163-2.908,6.893-2.908h50.835c15.363,0,27.247,3.52,35.648,10.554c8.4,7.038,12.6,16.515,12.6,28.433
		c0,8.33-1.975,15.26-5.923,20.786c-3.951,5.529-9.013,9.659-15.186,12.386c8.616,2.729,15.687,7.107,21.217,13.139
		c5.526,6.031,8.293,13.645,8.293,22.833c0,13.213-4.453,23.552-13.354,31.017c-8.906,7.469-22.906,11.201-42.004,11.201h-52.126
		C709.46,166.599,707.161,165.666,705.297,163.799z M757.854,81.301c12.779,0,21.755-2.154,26.924-6.462
		c5.17-4.308,7.755-10.339,7.755-18.094c0-6.748-2.767-12.133-8.292-16.155c-5.53-4.019-13.106-6.031-22.725-6.031h-39.418v46.742
		H757.854z M762.378,148.29c13.926,0,23.801-2.154,29.617-6.462c5.815-4.309,8.724-10.41,8.724-18.31
		c0-16.37-12.709-24.555-38.126-24.555h-40.494v49.326H762.378z"/>
	<path fill="#39629C" d="M866.2,161.645c-8.33-4.739-14.755-11.45-19.278-20.14c-4.523-8.687-6.784-18.632-6.784-29.833
		c0-11.2,2.261-21.143,6.784-29.833c4.523-8.687,10.948-15.4,19.278-20.14c8.326-4.739,18.02-7.108,29.079-7.108
		c10.911,0,20.533,2.369,28.863,7.108c8.326,4.739,14.788,11.453,19.386,20.14c4.594,8.69,6.893,18.633,6.893,29.833
		c0,11.201-2.299,21.146-6.893,29.833c-4.598,8.689-11.06,15.4-19.386,20.14c-8.33,4.738-17.952,7.108-28.863,7.108
		C884.219,168.753,874.526,166.383,866.2,161.645z M912.188,146.783c5.385-2.727,9.834-7.034,13.354-12.924
		c3.518-5.887,5.277-13.355,5.277-22.401c0-8.902-1.76-16.297-5.277-22.187c-3.52-5.887-7.969-10.157-13.354-12.816
		c-5.386-2.655-11.023-3.984-16.909-3.984c-6.031,0-11.739,1.329-17.124,3.984c-5.385,2.659-9.801,6.93-13.248,12.816
		c-3.445,5.89-5.169,13.284-5.169,22.187c0,9.046,1.724,16.515,5.169,22.401c3.447,5.89,7.863,10.197,13.248,12.924
		c5.385,2.729,11.093,4.093,17.124,4.093C901.165,150.875,906.802,149.512,912.188,146.783z"/>
	<path fill="#39629C" d="M997.16,161.645c-8.33-4.739-14.755-11.45-19.278-20.14c-4.523-8.687-6.785-18.632-6.785-29.833
		c0-11.2,2.262-21.143,6.785-29.833c4.523-8.687,10.948-15.4,19.278-20.14c8.326-4.739,18.02-7.108,29.079-7.108
		c10.911,0,20.533,2.369,28.863,7.108c8.326,4.739,14.788,11.453,19.386,20.14c4.594,8.69,6.893,18.633,6.893,29.833
		c0,11.201-2.299,21.146-6.893,29.833c-4.598,8.689-11.06,15.4-19.386,20.14c-8.33,4.738-17.952,7.108-28.863,7.108
		C1015.179,168.753,1005.486,166.383,997.16,161.645z M1043.147,146.783c5.386-2.727,9.835-7.034,13.355-12.924
		c3.517-5.887,5.277-13.355,5.277-22.401c0-8.902-1.761-16.297-5.277-22.187c-3.521-5.887-7.97-10.157-13.355-12.816
		c-5.385-2.655-11.022-3.984-16.908-3.984c-6.031,0-11.739,1.329-17.124,3.984c-5.386,2.659-9.801,6.93-13.247,12.816
		c-3.446,5.89-5.17,13.284-5.17,22.187c0,9.046,1.724,16.515,5.17,22.401c3.446,5.89,7.861,10.197,13.247,12.924
		c5.385,2.729,11.093,4.093,17.124,4.093C1032.125,150.875,1037.762,149.512,1043.147,146.783z"/>
	<path fill="#39629C" d="M1111.533,164.875c-1.867-1.864-2.8-4.163-2.8-6.893V18.189c0-2.726,0.933-5.062,2.8-7
		c1.865-1.938,4.163-2.908,6.893-2.908c2.727,0,5.063,0.969,7.001,2.908s2.908,4.274,2.908,7v88.098l51.265-47.388
		c2.154-1.865,4.308-2.8,6.462-2.8c3.302,0,5.708,0.936,7.216,2.8c1.508,1.868,2.262,4.093,2.262,6.677
		c0,2.444-1.222,4.884-3.662,7.324l-31.018,27.786l38.987,51.695c1.434,1.868,2.154,3.807,2.154,5.816
		c0,2.874-0.936,5.169-2.8,6.893c-1.868,1.724-4.237,2.585-7.108,2.585c-1.438,0-2.874-0.36-4.309-1.077
		c-1.437-0.717-2.658-1.724-3.661-3.016l-37.049-50.403l-18.739,17.017v27.786c0,2.729-0.97,5.028-2.908,6.893
		c-1.938,1.865-4.274,2.801-7.001,2.801C1115.696,167.676,1113.398,166.741,1111.533,164.875z"/>
</g>
<g>
</g>
<g>
</g>
<g>
</g>
<g>
</g>
<g>
</g>
<g>
</g>
<g>
</g>
<g>
</g>
<g>
</g>
<g>
</g>
<g>
</g>
<g>
</g>
<g>
</g>
<g>
</g>
<g>
</g>
</svg>
