<?xml version="1.0" encoding="utf-8"?>
<!-- Generator: Adobe Illustrator 21.1.0, SVG Export Plug-In . SVG Version: 6.00 Build 0)  -->
<svg version="1.1" id="Layer_1" xmlns="http://www.w3.org/2000/svg" xmlns:xlink="http://www.w3.org/1999/xlink" x="0px" y="0px"
	 viewBox="0 0 226.419 195.758" enable-background="new 0 0 226.419 195.758" xml:space="preserve">
<g id="Icon">
	<g>
		<path fill="#E6E6E6" d="M211.419,164h-134c-8.284,0-15-6.716-15-15V34h164v115C226.419,157.284,219.704,164,211.419,164z"/>
		<g>
			<path fill="#666666" d="M90.075,132.147c-0.832-0.346-1.491-0.848-1.975-1.507c-0.485-0.657-0.727-1.471-0.727-2.441
				c0-1.178,0.397-2.199,1.195-3.065c0.795-0.865,1.783-1.299,2.961-1.299c0.624,0,1.281,0.14,1.974,0.415
				c4.988,2.01,10.495,3.014,16.522,3.014c5.403,0,9.958-0.884,13.664-2.649c3.705-1.767,5.559-4.729,5.559-8.885
				c0-8.729-7.655-13.093-22.964-13.093h-1.663c-1.179,0-2.2-0.432-3.065-1.299c-0.867-0.865-1.299-1.887-1.299-3.065
				c0-1.177,0.432-2.198,1.299-3.065c0.865-0.865,1.887-1.299,3.065-1.299h0.623c6.926,0,12.226-1.055,15.898-3.169
				c3.671-2.112,5.507-5.247,5.507-9.403c0-3.325-1.387-5.957-4.157-7.897c-2.771-1.938-6.858-2.909-12.261-2.909
				c-5.819,0-11.188,1.143-16.106,3.429c-0.693,0.277-1.317,0.415-1.87,0.415c-1.04,0-1.94-0.363-2.702-1.091
				c-0.763-0.728-1.143-1.645-1.143-2.753c0-1.593,0.691-2.771,2.078-3.533c6.65-3.533,13.508-5.3,20.574-5.3
				c7.965,0,14.131,1.629,18.496,4.884c4.364,3.257,6.546,7.863,6.546,13.82c0,4.779-1.195,8.538-3.585,11.274
				c-2.39,2.737-5.387,4.764-8.988,6.078c3.948,0.901,7.463,2.79,10.546,5.663c3.082,2.876,4.624,7.154,4.624,12.833
				c0,6.374-2.512,11.311-7.533,14.808c-5.023,3.498-11.482,5.247-19.379,5.247C104.103,136.304,96.863,134.919,90.075,132.147z"/>
			<path fill="#666666" d="M161.772,134.018c-0.832-0.831-1.247-1.87-1.247-3.117s0.416-2.302,1.247-3.169
				c0.831-0.865,1.87-1.299,3.117-1.299h12.365V73.75l-10.599,5.195c-0.971,0.416-1.767,0.624-2.39,0.624
				c-1.317,0-2.39-0.416-3.221-1.247s-1.247-1.904-1.247-3.222c0-1.938,0.899-3.359,2.702-4.26l14.132-7.378
				c0.969-0.483,1.938-0.728,2.91-0.728h2.182c1.385,0,2.562,0.485,3.533,1.455c0.969,0.971,1.455,2.147,1.455,3.533v58.709h10.287
				c1.247,0,2.302,0.434,3.169,1.299c0.865,0.867,1.299,1.922,1.299,3.169s-0.434,2.286-1.299,3.117
				c-0.867,0.831-1.922,1.247-3.169,1.247h-32.108C163.642,135.265,162.603,134.849,161.772,134.018z"/>
		</g>
		<path fill="#4272B7" d="M211.419,0h-134c-8.284,0-15,6.716-15,15v19h164V15C226.419,6.716,219.704,0,211.419,0z M92.419,25
			c-4.418,0-8-3.582-8-8s3.582-8,8-8s8,3.582,8,8S96.838,25,92.419,25z M196.419,25c-4.418,0-8-3.582-8-8s3.582-8,8-8s8,3.582,8,8
			S200.838,25,196.419,25z"/>
	</g>
	<path opacity="0.33" fill="#4272B7" d="M0,108.388c72.39,115.723,187.02,83.141,187.02,83.141C114.63,75.807,0,108.388,0,108.388z"
		/>
</g>
<g>
</g>
<g>
</g>
<g>
</g>
<g>
</g>
<g>
</g>
<g>
</g>
<g>
</g>
<g>
</g>
<g>
</g>
<g>
</g>
<g>
</g>
<g>
</g>
<g>
</g>
<g>
</g>
<g>
</g>
</svg>
